<svg width="180" height="180" viewBox="0 0 180 180" fill="none" xmlns="http://www.w3.org/2000/svg">
  <defs>
    <!-- Gradient for background -->
    <linearGradient id="bgGradient" x1="0%" y1="0%" x2="100%" y2="100%">
      <stop offset="0%" style="stop-color:#9333EA;stop-opacity:1" />
      <stop offset="50%" style="stop-color:#7C3AED;stop-opacity:1" />
      <stop offset="100%" style="stop-color:#6366F1;stop-opacity:1" />
    </linearGradient>
    
    <!-- Gradient for S letter -->
    <linearGradient id="sGradient" x1="0%" y1="0%" x2="100%" y2="100%">
      <stop offset="0%" style="stop-color:#FFFFFF;stop-opacity:1" />
      <stop offset="50%" style="stop-color:#F8FAFC;stop-opacity:0.95" />
      <stop offset="100%" style="stop-color:#E2E8F0;stop-opacity:0.9" />
    </linearGradient>
    
    <!-- Shadow filter -->
    <filter id="shadow" x="-20%" y="-20%" width="140%" height="140%">
      <feDropShadow dx="2" dy="4" stdDeviation="3" flood-opacity="0.3"/>
    </filter>
  </defs>
  
  <!-- Background with gradient -->
  <rect fill="url(#bgGradient)" width="180" height="180" rx="40" filter="url(#shadow)"/>
  
  <!-- Stylized S letter -->
  <g transform="translate(90, 90)">
    <!-- Main S shape with modern curves -->
    <path d="M-35 -45 
             C-35 -55, -25 -65, -10 -65
             L15 -65 
             C35 -65, 45 -55, 45 -35
             C45 -20, 35 -10, 20 -5
             L-5 5
             C-15 10, -20 15, -20 25
             C-20 35, -15 40, -5 40
             L20 40
             C30 40, 35 35, 35 25
             L25 25
             C25 30, 22 32, 18 32
             L-2 32
             C-8 32, -12 28, -12 22
             C-12 16, -8 12, -2 8
             L23 -8
             C33 -13, 38 -23, 38 -35
             C38 -50, 28 -58, 13 -58
             L-12 -58
             C-22 -58, -27 -53, -27 -43
             Z" 
          fill="url(#sGradient)" 
          stroke="rgba(255,255,255,0.2)" 
          stroke-width="1"/>
    
    <!-- Accent elements -->
    <circle cx="38" cy="-35" r="3" fill="#D946EF" opacity="0.8"/>
    <circle cx="35" cy="-25" r="2" fill="#EC4899" opacity="0.6"/>
    <circle cx="-38" cy="25" r="2.5" fill="#F59E0B" opacity="0.7"/>
    
    <!-- Modern geometric accent -->
    <rect x="42" y="-50" width="2" height="20" rx="1" fill="rgba(255,255,255,0.4)"/>
    <rect x="-44" y="30" width="2" height="15" rx="1" fill="rgba(255,255,255,0.3)"/>
  </g>
</svg>